# xmcd
#
# Track frame offsets:
#	150
#	19055
#	37182
#	54505
#	70457
#	87327
#	104022
#	120630
#
# Disc length: 1827 seconds
#
# Revision: 0
# Processed by: cddbd v1.4PL0 Copyright (c) Steve Scherf et al.
# Submitted via: dBpowerAMP V4.0
#
DISCID=70072108
DTITLE=Bobby Rush - What's Good for the Goose is Good for the Gander
DYEAR=1985
DGENRE=Blues
TTITLE0=What's Good for the Goose is Good for the Gander
TTITLE1=Call on Me
TTITLE2=Bull Manure
TTITLE3=Shakey Ground
TTITLE4=Hurry Home
TTITLE5=Dr. Funk
TTITLE6=Let's Get it On
TTITLE7=Poor Tang
EXTD=
EXTT0=
EXTT1=
EXTT2=
EXTT3=
EXTT4=
EXTT5=
EXTT6=
EXTT7=
PLAYORDER=
